<?xml version="1.0" encoding="utf-8"?>
<!-- Generator: Adobe Illustrator 17.0.0, SVG Export Plug-In . SVG Version: 6.00 Build 0)  -->
<!DOCTYPE svg PUBLIC "-//W3C//DTD SVG 1.1//EN" "http://www.w3.org/Graphics/SVG/1.1/DTD/svg11.dtd">
<svg version="1.1" id="Layer_1" xmlns="http://www.w3.org/2000/svg" xmlns:xlink="http://www.w3.org/1999/xlink" x="0px" y="0px"
	 width="504px" height="200.154px" viewBox="0 0 504 200.154" enable-background="new 0 0 504 200.154" xml:space="preserve">
<path fill="#0E3192" d="M0,57.801c0-14.502,11.499-28.702,25.684-31.717L148.397,0v26.258c0,14.502-11.499,28.702-25.684,31.717
	L0,84.058V57.801z"/>
<path fill="#0E3192" d="M0,89.893l102.736-21.837v26.258c0,14.502-11.499,28.702-25.684,31.717L0,142.409V89.893z"/>
<path fill="#0E3192" d="M0,148.244l57.076-12.132v26.258c0,14.502-11.499,28.702-25.684,31.717L0,200.76V148.244z"/>
<path d="M161.563,170.126v-24.093h25.342c1.339,0,1.695-0.625,1.695-2.052v-6.96c0-1.785-0.268-2.142-1.695-2.142h-25.342v-8.209
	c0-3.212,1.16-5.532,5.8-5.532h23.111c1.339,0,1.785-0.446,1.785-1.963v-7.585c0-1.695-0.268-2.142-1.785-2.142h-26.056
	c-12.314,0-16.419,8.031-16.419,16.508v44.17c0,1.428,0.625,1.874,2.052,1.874h9.459C161.296,172,161.563,171.822,161.563,170.126z"
	/>
<path d="M222.404,147.907l3.391-11.333l3.391-12.76h0.535l3.302,12.76l3.391,11.333H222.404z M239.626,158.972l3.48,11.6
	c0.357,1.338,1.249,1.428,2.588,1.428h10.619c1.338,0,1.428-1.071,1.16-1.785l-18.56-55.949c-1.428-4.372-2.945-4.908-6.96-4.908
	h-5.354c-3.569,0-5.354,0.982-6.514,4.908l-18.56,55.949c-0.268,0.982-0.089,1.785,1.249,1.785h10.44
	c1.695,0,2.142-0.535,2.499-1.695l3.48-11.333H239.626z"/>
<path d="M296.046,160.667c-11.69,0-15.437-7.942-15.437-19.542s5.354-20.345,15.08-20.345c4.551,0,7.853,0.803,12.136,2.32
	c1.695,0.625,2.052,0.357,2.677-1.338l2.766-6.157c0.803-2.052,0.625-2.409-0.714-3.123c-5.622-3.123-11.422-3.837-17.49-3.837
	c-17.133,0-28.733,12.939-28.733,32.481c0,19.81,8.566,31.856,28.108,31.856c6.871,0,14.188-1.071,20.613-4.997
	c1.071-0.625,1.339-1.249,0.535-2.945l-3.034-6.425c-0.625-1.339-1.071-1.785-2.766-1.071
	C305.951,158.972,301.757,160.667,296.046,160.667z"/>
<path d="M357.847,160.667c-11.69,0-15.437-7.942-15.437-19.542s5.354-20.345,15.08-20.345c4.551,0,7.852,0.803,12.136,2.32
	c1.695,0.625,2.052,0.357,2.677-1.338l2.766-6.157c0.803-2.052,0.625-2.409-0.714-3.123c-5.622-3.123-11.422-3.837-17.49-3.837
	c-17.133,0-28.733,12.939-28.733,32.481c0,19.81,8.566,31.856,28.108,31.856c6.871,0,14.188-1.071,20.613-4.997
	c1.071-0.625,1.339-1.249,0.535-2.945l-3.034-6.425c-0.625-1.339-1.071-1.785-2.766-1.071
	C367.752,158.972,363.558,160.667,357.847,160.667z"/>
<path d="M408.94,147.907l3.391-11.333l3.391-12.76h0.535l3.302,12.76l3.391,11.333H408.94z M426.162,158.972l3.48,11.6
	c0.357,1.338,1.249,1.428,2.588,1.428h10.619c1.339,0,1.428-1.071,1.16-1.785l-18.56-55.949c-1.428-4.372-2.945-4.908-6.96-4.908
	h-5.354c-3.569,0-5.354,0.982-6.514,4.908l-18.56,55.949c-0.268,0.982-0.089,1.785,1.249,1.785h10.44
	c1.695,0,2.142-0.535,2.499-1.695l3.48-11.333H426.162z"/>
<path d="M487.4,128.454c0,4.283-2.766,7.228-8.031,7.228h-11.868v-14.277h12.136C485.794,121.405,487.4,125.331,487.4,128.454z
	 M493.111,142.732l-0.089-0.446c5.354-2.855,8.299-8.656,8.299-14.723c0-11.065-7.406-18.114-20.345-18.114h-21.862
	c-4.283,0-5.354,1.874-5.354,5.443v55.235c0,1.428,0.625,1.874,2.052,1.874h9.548c1.785,0,2.052-0.178,2.052-1.874v-23.468h8.656
	c5.354,0,8.209,1.963,9.726,7.763l3.926,15.794c0.625,1.785,2.231,1.785,3.569,1.785h9.369c1.428,0,1.606-1.338,1.339-2.052
	l-4.551-17.847C498.375,147.907,497.126,144.516,493.111,142.732z"/>
<path fill="#0E3192" d="M150.714,200.583v-4.822h5.072c0.268,0,0.339-0.125,0.339-0.411v-1.393c0-0.357-0.054-0.429-0.339-0.429
	h-5.072v-1.643c0-0.643,0.232-1.107,1.161-1.107h4.625c0.268,0,0.357-0.089,0.357-0.393v-1.518c0-0.339-0.054-0.429-0.357-0.429
	h-5.215c-2.464,0-3.286,1.607-3.286,3.304v8.84c0,0.286,0.125,0.375,0.411,0.375h1.893
	C150.661,200.958,150.714,200.922,150.714,200.583z"/>
<path fill="#0E3192" d="M167.716,196.136l0.679-2.268l0.679-2.554h0.107l0.661,2.554l0.679,2.268H167.716z M171.163,198.35
	l0.697,2.322c0.071,0.268,0.25,0.286,0.518,0.286h2.125c0.268,0,0.286-0.214,0.232-0.357l-3.715-11.197
	c-0.286-0.875-0.589-0.982-1.393-0.982h-1.072c-0.714,0-1.072,0.196-1.304,0.982l-3.715,11.197c-0.054,0.196-0.018,0.357,0.25,0.357
	h2.089c0.339,0,0.429-0.107,0.5-0.339l0.696-2.268H171.163z"/>
<path fill="#0E3192" d="M188.883,198.69c-2.339,0-3.09-1.589-3.09-3.911s1.072-4.072,3.018-4.072c0.911,0,1.572,0.161,2.429,0.464
	c0.339,0.125,0.411,0.071,0.536-0.268l0.554-1.232c0.161-0.411,0.125-0.482-0.143-0.625c-1.125-0.625-2.286-0.768-3.5-0.768
	c-3.429,0-5.75,2.589-5.75,6.501c0,3.965,1.714,6.376,5.625,6.376c1.375,0,2.84-0.214,4.125-1c0.214-0.125,0.268-0.25,0.107-0.589
	l-0.607-1.286c-0.125-0.268-0.214-0.357-0.554-0.214C190.866,198.35,190.026,198.69,188.883,198.69z"/>
<path fill="#0E3192" d="M211.86,199.225v-10.394c0-0.304-0.036-0.375-0.393-0.375h-1.893c-0.286,0-0.411,0.089-0.411,0.375v9.822
	c-0.625,0.143-1.536,0.143-1.857,0.143c-2.268,0-2.84-0.911-2.84-2.875v-7.09c0-0.304-0.071-0.375-0.429-0.375h-1.911
	c-0.268,0-0.411,0.089-0.411,0.375l0.018,6.929c0,4.179,1.661,5.411,5.768,5.411c0.625,0,2.125,0,3.054-0.232
	C211.556,200.672,211.86,200.065,211.86,199.225z"/>
<path fill="#0E3192" d="M224.804,200.958h5.161c0.232,0,0.339-0.125,0.339-0.375v-1.589c0-0.339-0.071-0.375-0.339-0.375h-4.536
	c-0.714,0-1.197-0.232-1.197-1.143v-8.661c0-0.304-0.071-0.375-0.429-0.375h-1.893c-0.286,0-0.411,0.089-0.411,0.375v8.858
	C221.5,199.297,222.161,200.958,224.804,200.958z"/>
<path fill="#0E3192" d="M246.111,194.636c0,2.286-0.661,3.929-3.161,3.929h-1.447v-7.751h1.393
	C245.432,190.814,246.111,192.457,246.111,194.636z M239.861,200.958h3.536c4.215,0,5.518-3.036,5.518-6.322
	c0-3.357-1.518-6.197-5.715-6.197h-3.34c-0.857,0-1.072,0.339-1.072,1.107v10.322C238.789,200.636,239.003,200.958,239.861,200.958z
	"/>
<path fill="#0E3192" d="M261.296,196.136l0.679-2.268l0.679-2.554h0.107l0.661,2.554l0.679,2.268H261.296z M264.742,198.35
	l0.697,2.322c0.071,0.268,0.25,0.286,0.518,0.286h2.125c0.268,0,0.286-0.214,0.232-0.357l-3.715-11.197
	c-0.286-0.875-0.589-0.982-1.393-0.982h-1.072c-0.714,0-1.072,0.196-1.304,0.982l-3.715,11.197c-0.054,0.196-0.018,0.357,0.25,0.357
	h2.089c0.339,0,0.429-0.107,0.5-0.339l0.696-2.268H264.742z"/>
<path fill="#0E3192" d="M284.195,194.636c0,2.286-0.661,3.929-3.161,3.929h-1.447v-7.751h1.393
	C283.516,190.814,284.195,192.457,284.195,194.636z M277.945,200.958h3.536c4.215,0,5.518-3.036,5.518-6.322
	c0-3.357-1.518-6.197-5.715-6.197h-3.34c-0.857,0-1.072,0.339-1.072,1.107v10.322C276.873,200.636,277.087,200.958,277.945,200.958z
	"/>
<path fill="#0E3192" d="M305.237,200.547v-1.518c0-0.357-0.054-0.429-0.357-0.429h-4.715c-0.768,0-1.161-0.232-1.161-1.072v-2.036
	h5.125c0.286,0,0.339-0.125,0.339-0.411v-1.393c0-0.339-0.054-0.429-0.339-0.429h-5.125v-1.375c0-0.625,0.232-1.107,1.161-1.107
	h4.536c0.268,0,0.339-0.089,0.339-0.393v-1.518c0-0.339-0.054-0.429-0.339-0.429h-5.125c-2.411,0-3.286,1.607-3.286,3.304v5.929
	c0,1.625,0.661,3.286,3.304,3.286h5.286C305.166,200.958,305.237,200.833,305.237,200.547z"/>
<path fill="#0E3192" d="M333.121,192.528c0,0.947-0.554,1.697-1.768,1.697h-2.339v-3.393h2.322
	C332.782,190.832,333.121,191.868,333.121,192.528z M329.014,200.583v-4.161h2.375c4.018,0,4.536-2.857,4.536-4.072
	c0-2.268-1.589-3.911-4.179-3.911h-4.375c-0.857,0-1.072,0.429-1.072,1.089v11.054c0,0.286,0.125,0.375,0.411,0.375h1.875
	C328.942,200.958,329.014,200.922,329.014,200.583z"/>
<path fill="#0E3192" d="M347.132,196.136l0.679-2.268l0.679-2.554h0.107l0.661,2.554l0.679,2.268H347.132z M350.578,198.35
	l0.696,2.322c0.071,0.268,0.25,0.286,0.518,0.286h2.125c0.268,0,0.286-0.214,0.232-0.357l-3.715-11.197
	c-0.286-0.875-0.589-0.982-1.393-0.982h-1.072c-0.714,0-1.072,0.196-1.304,0.982l-3.715,11.197c-0.054,0.196-0.018,0.357,0.25,0.357
	h2.089c0.339,0,0.429-0.107,0.5-0.339l0.696-2.268H350.578z"/>
<path fill="#0E3192" d="M369.442,192.243c0,0.857-0.554,1.447-1.607,1.447h-2.375v-2.857h2.429
	C369.12,190.832,369.442,191.618,369.442,192.243z M370.585,195.1l-0.018-0.089c1.072-0.571,1.661-1.732,1.661-2.947
	c0-2.214-1.482-3.625-4.072-3.625h-4.375c-0.857,0-1.072,0.375-1.072,1.089v11.054c0,0.286,0.125,0.375,0.411,0.375h1.911
	c0.357,0,0.411-0.036,0.411-0.375v-4.697h1.732c1.072,0,1.643,0.393,1.947,1.554l0.786,3.161c0.125,0.357,0.446,0.357,0.714,0.357
	h1.875c0.286,0,0.321-0.268,0.268-0.411l-0.911-3.572C371.638,196.136,371.388,195.457,370.585,195.1z"/>
<path fill="#0E3192" d="M384.71,196.136l0.679-2.268l0.679-2.554h0.107l0.661,2.554l0.679,2.268H384.71z M388.157,198.35
	l0.696,2.322c0.071,0.268,0.25,0.286,0.518,0.286h2.125c0.268,0,0.286-0.214,0.232-0.357l-3.715-11.197
	c-0.286-0.875-0.589-0.982-1.393-0.982h-1.071c-0.714,0-1.072,0.196-1.304,0.982l-3.715,11.197c-0.054,0.196-0.018,0.357,0.25,0.357
	h2.089c0.339,0,0.429-0.107,0.5-0.339l0.696-2.268H388.157z"/>
<path fill="#0E3192" d="M402.984,193.189h0.089l1.714,2.661l2.857,4.322c0.429,0.661,0.607,0.786,1.339,0.786h0.75
	c0.929,0,1.161-0.464,1.161-1.232v-10.912c0-0.25-0.143-0.375-0.411-0.375h-1.875c-0.339,0-0.411,0.089-0.411,0.375v7.465h-0.089
	l-1.536-2.411l-3.036-4.625c-0.429-0.679-0.607-0.804-1.339-0.804h-0.75c-0.875,0-1.161,0.321-1.161,1.25v10.894
	c0,0.286,0.125,0.375,0.411,0.375h1.875c0.339,0,0.411-0.071,0.411-0.375V193.189z"/>
<path fill="#0E3192" d="M423.631,196.136l0.679-2.268l0.679-2.554h0.107l0.661,2.554l0.679,2.268H423.631z M427.078,198.35
	l0.696,2.322c0.071,0.268,0.25,0.286,0.518,0.286h2.125c0.268,0,0.286-0.214,0.232-0.357l-3.715-11.197
	c-0.286-0.875-0.589-0.982-1.393-0.982h-1.072c-0.714,0-1.072,0.196-1.304,0.982l-3.715,11.197c-0.054,0.196-0.018,0.357,0.25,0.357
	h2.089c0.339,0,0.429-0.107,0.5-0.339l0.697-2.268H427.078z"/>
<path fill="#0E3192" d="M448.156,200.547v-1.518c0-0.357-0.054-0.429-0.357-0.429h-4.715c-0.768,0-1.161-0.232-1.161-1.072v-2.036
	h5.125c0.286,0,0.339-0.125,0.339-0.411v-1.393c0-0.339-0.054-0.429-0.339-0.429h-5.125v-1.375c0-0.625,0.232-1.107,1.161-1.107
	h4.536c0.268,0,0.339-0.089,0.339-0.393v-1.518c0-0.339-0.054-0.429-0.339-0.429h-5.125c-2.411,0-3.286,1.607-3.286,3.304v5.929
	c0,1.625,0.661,3.286,3.304,3.286h5.286C448.084,200.958,448.156,200.833,448.156,200.547z"/>
<path fill="#0E3192" d="M459.822,193.189h0.089l1.714,2.661l2.857,4.322c0.429,0.661,0.607,0.786,1.339,0.786h0.75
	c0.929,0,1.161-0.464,1.161-1.232v-10.912c0-0.25-0.143-0.375-0.411-0.375h-1.875c-0.339,0-0.411,0.089-0.411,0.375v7.465h-0.089
	l-1.536-2.411l-3.036-4.625c-0.429-0.679-0.607-0.804-1.339-0.804h-0.75c-0.875,0-1.161,0.321-1.161,1.25v10.894
	c0,0.286,0.125,0.375,0.411,0.375h1.875c0.339,0,0.411-0.071,0.411-0.375V193.189z"/>
<path fill="#0E3192" d="M477.148,191.868c0,1.982,1.661,2.947,4.179,3.893c1.518,0.571,1.982,0.982,1.982,1.697
	c0,0.643-0.446,1.25-1.947,1.25c-1.232,0-2.572-0.446-3.536-0.839c-0.268-0.125-0.375-0.089-0.5,0.196l-0.607,1.429
	c-0.125,0.304-0.089,0.411,0.107,0.536c1.339,0.804,3.197,1.125,4.733,1.125c2.786,0,4.661-1.232,4.661-3.732
	c0-2.339-1.732-3.197-4.161-4.143c-1.572-0.625-2.089-1-2.089-1.625c0-0.554,0.375-0.982,1.429-0.982
	c0.982,0,2.107,0.232,3.232,0.571c0.286,0.071,0.357,0.071,0.482-0.268l0.464-1.339c0.125-0.357,0.107-0.429-0.179-0.571
	c-1.036-0.518-2.661-0.822-4-0.822C478.487,188.242,477.148,189.867,477.148,191.868z"/>
<path fill="#0E3192" d="M504,200.547v-1.518c0-0.357-0.054-0.429-0.357-0.429h-4.715c-0.768,0-1.161-0.232-1.161-1.072v-2.036h5.125
	c0.286,0,0.339-0.125,0.339-0.411v-1.393c0-0.339-0.054-0.429-0.339-0.429h-5.125v-1.375c0-0.625,0.232-1.107,1.161-1.107h4.536
	c0.268,0,0.339-0.089,0.339-0.393v-1.518c0-0.339-0.054-0.429-0.339-0.429h-5.125c-2.411,0-3.286,1.607-3.286,3.304v5.929
	c0,1.625,0.661,3.286,3.304,3.286h5.286C503.929,200.958,504,200.833,504,200.547z"/>
</svg>
